<svg width="646" height="150" viewBox="0 0 646 150" fill="none" xmlns="http://www.w3.org/2000/svg">
<path fill-rule="evenodd" clip-rule="evenodd" d="M434.95 99.9609V103.453C434.95 103.814 434.807 104.159 434.552 104.414C434.298 104.669 433.952 104.813 433.592 104.813H417.044C417.044 105.68 417.044 106.43 417.044 107.156C417.07 111.853 416.835 116.548 416.342 121.219C416.308 121.557 416.15 121.87 415.9 122.099C415.65 122.328 415.324 122.457 414.985 122.461H411.404C411.235 122.458 411.068 122.422 410.913 122.354C410.758 122.286 410.618 122.189 410.5 122.067C410.383 121.945 410.291 121.801 410.229 121.644C410.167 121.486 410.137 121.318 410.14 121.148V121.148C410.65 116.549 410.892 111.924 410.865 107.297C410.865 106.57 410.865 105.797 410.865 104.953H394.481C394.121 104.953 393.776 104.81 393.521 104.555C393.267 104.3 393.124 103.954 393.124 103.594V99.9609C393.121 99.7835 393.153 99.6073 393.219 99.4425C393.284 99.2777 393.382 99.1277 393.506 99.0011C393.63 98.8746 393.778 98.7741 393.942 98.7055C394.105 98.6369 394.281 98.6015 394.458 98.6016H410.608C410.277 93.0036 409.557 87.4355 408.455 81.9375C408.399 81.6426 408.461 81.3377 408.627 81.088C408.794 80.8384 409.051 80.6637 409.344 80.6016H413.463C413.755 80.6028 414.037 80.7069 414.259 80.8955C414.482 81.0841 414.631 81.3451 414.68 81.6328C415.758 87.2439 416.462 92.9205 416.787 98.625H433.569C433.747 98.6219 433.924 98.654 434.09 98.7195C434.256 98.7849 434.408 98.8825 434.536 99.0065C434.664 99.1306 434.767 99.2787 434.838 99.4425C434.909 99.6062 434.947 99.7824 434.95 99.9609V99.9609Z" fill="white"/>
<path d="M412.434 72.375C404.511 52.9123 391.445 35.9778 374.637 23.3897C357.829 10.8017 337.914 3.03541 317.031 0.924781C296.148 -1.18585 275.086 2.43885 256.105 11.4097C237.124 20.3806 220.941 34.3589 209.295 51.8438C209.177 52.0169 209.101 52.2149 209.073 52.4222C209.045 52.6295 209.064 52.8406 209.131 53.0391C209.198 53.2373 209.308 53.418 209.454 53.568C209.6 53.7181 209.777 53.8336 209.973 53.9062L212.993 54.9141C213.34 55.0281 213.716 55.0258 214.062 54.9074C214.408 54.789 214.707 54.561 214.912 54.2578C225.969 37.9601 241.209 24.9486 259.029 16.593C276.848 8.23736 296.587 4.84663 316.169 6.77769C335.751 8.70875 354.45 15.8902 370.299 27.5661C386.149 39.242 398.561 54.9805 406.231 73.125C406.35 73.4133 406.551 73.6603 406.809 73.8352C407.067 74.0102 407.371 74.1055 407.682 74.1094H411.263C411.598 74.1094 411.92 73.976 412.157 73.7387C412.394 73.5013 412.527 73.1794 412.527 72.8437C412.549 72.6883 412.549 72.5305 412.527 72.375H412.434ZM213.484 54.0703C213.4 54.0921 213.311 54.0921 213.227 54.0703H213.461H213.484Z" fill="url(#paint0_radial)"/>
<path d="M252.97 77.5313C252.97 77.5313 253.836 76.2422 254.561 75.1875C256.196 73.0781 258.03 71.1316 260.038 69.375L261.232 68.3906C261.232 68.3906 260.226 68.3906 259.664 68.6016C258.067 69.0739 256.585 69.8719 255.31 70.9453C253.672 72.3516 251.87 74.6484 252.689 76.6875L252.97 77.3672V77.5313ZM262.098 79.9922C264.661 79.8031 267.153 79.0594 269.401 77.8125C271.741 76.5703 274.901 74.1328 274.55 71.2969C274.507 70.8682 274.346 70.4599 274.086 70.1167C273.826 69.7735 273.476 69.5088 273.075 69.3516C272.64 69.1591 272.17 69.0597 271.694 69.0597C271.219 69.0597 270.749 69.1591 270.314 69.3516C269.539 69.5562 268.798 69.872 268.113 70.2891C265.035 72.2217 262.292 74.6441 259.992 77.4609C259.547 78.0469 259.079 78.7266 258.728 79.1719C258.377 79.6172 258.33 79.7109 258.353 79.7813C259.583 80.0491 260.848 80.1124 262.098 79.9687V79.9922ZM255.498 84.8203C255.189 85.2961 254.908 85.7891 254.655 86.2969C254.49 86.5754 254.276 86.8216 254.023 87.0234C253.769 87.2782 253.423 87.4213 253.063 87.4213C252.704 87.4213 252.358 87.2782 252.104 87.0234C251.654 86.6007 251.293 86.0932 251.04 85.5301C250.787 84.967 250.647 84.3594 250.629 83.7422C250.676 83.2198 250.676 82.6943 250.629 82.1719C250.295 81.3328 249.846 80.544 249.295 79.8281C248.783 78.7951 248.473 77.6733 248.382 76.5234C248.393 75.0368 248.706 73.568 249.302 72.2062C249.897 70.8444 250.763 69.618 251.846 68.6016C254.013 66.3364 256.628 64.5484 259.523 63.3516C262.61 61.9397 266.084 61.6175 269.377 62.4375C270.561 62.8581 271.617 63.5764 272.443 64.5234C272.565 64.6961 272.706 64.8535 272.865 64.9922C273.114 65.0802 273.374 65.1354 273.637 65.1562C274.71 65.4063 275.716 65.8861 276.586 66.5625C277.639 67.3874 278.369 68.5574 278.646 69.8672C278.802 71.2737 278.627 72.6972 278.135 74.024C277.643 75.3507 276.848 76.5438 275.814 77.5078C273.008 80.5762 269.554 82.9784 265.703 84.5391C263.654 85.3455 261.466 85.7359 259.266 85.6875C258.657 85.6875 258.026 85.4766 257.417 85.4297C256.892 85.3411 256.375 85.2078 255.872 85.0312C255.732 84.9141 255.568 84.8203 255.498 84.8672V84.8203ZM259.032 90.9609C259.194 90.9826 259.352 91.0301 259.5 91.1016C260.133 91.3963 260.68 91.8481 261.09 92.4142C261.5 92.9802 261.758 93.6418 261.841 94.3359C262.562 98.7943 262.977 103.297 263.081 107.812C263.081 109.945 263.222 112.031 263.315 114.141C263.485 116.086 263.43 118.044 263.151 119.977C263.009 120.651 262.615 121.246 262.051 121.641C261.103 122.031 260.06 122.129 259.055 121.922C257.019 121.5 256.364 120.187 256.059 118.172C255.52 112.106 255.52 106.004 256.059 99.9375C256.3 97.4463 256.77 94.9827 257.464 92.5781C257.698 91.9688 258.189 90.7734 259.079 90.9609H259.032ZM196.281 98.1797C196.281 98.1797 193.285 98.3906 191.202 98.625C187.655 99.0143 184.152 99.7362 180.74 100.781C179.897 101.109 178.142 101.812 177.978 102.703C177.974 103.147 178.066 103.586 178.248 103.991C178.429 104.395 178.697 104.756 179.031 105.047C179.405 105.492 181.372 107.391 182.05 107.977C185.422 110.646 189.109 112.889 193.028 114.656C194.268 115.172 196.328 115.898 196.328 115.898C196.328 115.898 196.187 110.039 196.328 104.18C196.328 101.109 196.328 98.0859 196.328 98.0859L196.281 98.1797ZM251.566 100.523C251.621 102.186 251.519 103.849 251.261 105.492C251.031 106.592 250.718 107.674 250.325 108.727C249.828 109.879 249.273 111.005 248.663 112.102C247.367 114.238 245.792 116.193 243.982 117.914C238.136 122.353 231.177 125.086 223.876 125.812C218.881 126.403 213.825 126.253 208.873 125.367L204.637 124.477C204.667 125.054 204.667 125.633 204.637 126.211C204.554 126.71 204.413 127.198 204.216 127.664C204.045 128.011 203.791 128.311 203.476 128.536C203.162 128.76 202.797 128.904 202.413 128.953C201.356 129.26 200.231 129.244 199.183 128.906C198.486 128.533 197.901 127.98 197.489 127.304C197.077 126.628 196.854 125.854 196.843 125.063C196.609 123.703 196.375 121.336 196.375 121.336L194.268 120.187C191.322 118.727 188.51 117.009 185.865 115.055C184.391 113.883 182.94 112.711 181.535 111.398C179.687 109.739 178.108 107.802 176.854 105.656C176.354 104.904 176.046 104.041 175.956 103.142C175.867 102.243 175.998 101.336 176.339 100.5C177.369 97.9219 181.02 95.9766 183.618 94.875C186.87 93.5604 190.23 92.533 193.66 91.8047C194.783 91.6406 196.538 91.3359 196.655 91.2656C196.655 91.2656 196.796 88.6172 196.655 87.7031C196.515 86.7891 197.334 80.6719 197.568 79.4531C197.765 78.053 198.159 76.6878 198.739 75.3984C198.923 75.194 199.178 75.0679 199.453 75.0461C199.727 75.0243 199.999 75.1085 200.213 75.2812C202.952 76.9922 203.794 82.9453 204.005 85.9688C204.005 87.7969 204.192 90.6563 204.192 90.6563C204.192 90.6563 207.352 90.6563 209.295 90.6563C211.279 90.7487 213.257 90.96 215.216 91.2891C218.737 91.8214 222.175 92.8061 225.445 94.2188C227.743 95.2773 229.581 97.1341 230.617 99.4453C230.948 100.248 231.081 101.119 231.003 101.984C230.926 102.849 230.641 103.683 230.173 104.414C229.611 105.359 228.835 106.159 227.908 106.749C226.981 107.339 225.929 107.703 224.836 107.812C223.531 107.809 222.243 107.513 221.068 106.945C221.006 106.886 220.957 106.815 220.924 106.737C220.89 106.658 220.873 106.574 220.873 106.488C220.873 106.403 220.89 106.318 220.924 106.24C220.957 106.161 221.006 106.09 221.068 106.031C221.068 106.031 222.261 105.352 222.917 105C223.232 104.838 223.524 104.633 223.783 104.391C224.345 103.898 224.836 103.359 224.789 102.75C224.742 102.141 223.853 101.461 223.034 101.133C218.109 99.5217 213.009 98.5067 207.843 98.1094L204.333 97.9687L204.777 118.406L207.82 118.945C208.569 119.062 211.846 119.344 212.712 119.367C219.545 119.814 226.39 118.692 232.724 116.086C235.378 114.948 237.769 113.272 239.746 111.164C240.985 109.713 241.922 108.028 242.501 106.209C243.08 104.389 243.289 102.472 243.116 100.57C242.271 95.9062 240.24 91.539 237.218 87.8906C230.758 79.5703 219.663 72.7031 209.927 68.6953C200.278 64.5995 189.97 62.2811 179.499 61.8516C175.578 61.6931 171.651 61.9841 167.796 62.7188L166.532 63.0703C166.202 63.1542 165.886 63.2886 165.596 63.4688L165.456 63.6094C165.565 63.6852 165.683 63.7481 165.807 63.7969C166.134 63.9375 167.468 64.0078 168.147 64.1484C168.751 64.2355 169.297 64.5551 169.669 65.0391C169.798 65.198 169.868 65.3966 169.868 65.6016C169.868 65.8065 169.798 66.0052 169.669 66.1641C168.966 67.0078 166.439 66.8672 165.292 66.6797C164.145 66.4922 162.67 66.1406 162.389 65.1094C162.209 63.884 162.52 62.6369 163.255 61.6406C163.855 60.6102 164.666 59.7183 165.634 59.0236C166.602 58.3289 167.706 57.8469 168.873 57.6094C172.746 56.5828 176.715 55.9622 180.716 55.7578C188.487 55.5646 196.235 56.6898 203.63 59.0859C208.523 60.6043 213.302 62.4684 217.931 64.6641C221.513 66.4201 224.998 68.3683 228.37 70.5C229.213 71.0391 234.128 74.6484 234.901 75.3047C236.492 76.5938 238.575 78.4688 240.073 79.9922C243.33 83.2074 246.127 86.8594 248.382 90.8437C248.804 91.6875 249.131 92.5078 249.67 93.4922C250.113 94.433 250.488 95.4042 250.793 96.3984C250.934 96.9844 251.121 97.8281 251.144 97.8516C251.362 98.7354 251.495 99.6379 251.542 100.547L251.566 100.523ZM285.551 102H285.878C288.138 102.233 290.357 102.761 292.479 103.57C294.041 104.216 295.308 105.419 296.037 106.945C296.674 108.117 297.059 109.41 297.166 110.74C297.273 112.07 297.101 113.407 296.66 114.666C296.218 115.925 295.518 117.078 294.605 118.049C293.691 119.02 292.584 119.789 291.355 120.305C289.523 121.154 287.56 121.685 285.551 121.875C281.669 122.247 277.76 121.55 274.246 119.859C271.905 118.81 269.915 117.11 268.511 114.961C268.032 114.168 267.799 113.25 267.84 112.324C267.882 111.398 268.197 110.505 268.745 109.758C270.501 107.414 274.316 106.781 277.171 106.875C279.951 107.055 282.7 107.558 285.363 108.375C286.437 108.733 287.466 109.212 288.43 109.805C288.57 109.922 288.676 110.076 288.734 110.25C288.791 110.424 288.8 110.611 288.757 110.789C288.289 112.242 284.755 113.016 283.748 113.133C281.033 113.555 279.606 112.523 276.516 111.305C275.685 110.956 274.811 110.72 273.918 110.602C272.514 110.461 270.828 110.859 270.548 112.383C270.548 113.18 271.343 113.93 272.046 114.234C273.516 114.899 275.113 115.235 276.727 115.219C281.712 115.551 286.677 114.322 290.934 111.703C291.233 111.532 291.487 111.292 291.675 111.002C291.862 110.713 291.977 110.382 292.011 110.039C292.011 110.039 292.011 109.195 291.636 109.102C291.636 109.102 291.402 108.82 291.262 108.68C290.761 108.281 290.2 107.965 289.6 107.742C286.331 106.688 282.941 106.058 279.512 105.867C276.844 105.633 272.654 105.305 271.671 105.141C270.619 105.033 269.588 104.78 268.605 104.391C268.116 104.167 267.68 103.843 267.325 103.439C266.97 103.035 266.704 102.561 266.545 102.047C266.184 100.131 266.596 98.1504 267.692 96.5391C270.337 92.7422 276.516 91.3125 281.127 90.7266C285.738 90.1406 292.83 90.1641 297.207 92.5078C297.886 92.8594 298.237 93.2109 298.096 93.9375C297.946 94.5643 297.63 95.1388 297.181 95.6008C296.732 96.0627 296.167 96.395 295.545 96.5625C293.843 96.9277 292.112 97.1395 290.372 97.1953C284.758 97.1566 279.153 97.6668 273.637 98.7187C273.179 98.8177 272.742 99.0004 272.35 99.2578C271.554 100.125 273.824 100.359 274.293 100.477H274.62L285.761 101.789L285.551 102ZM302.052 121.875C299.922 121.102 299.43 117.656 299.337 115.898C299.24 109.462 300.278 103.059 302.403 96.9844C302.941 95.4609 303.737 92.9766 305.422 93.1172C305.983 93.2239 306.513 93.4537 306.974 93.79C307.436 94.1264 307.817 94.561 308.091 95.0625C309.893 97.6172 311.672 100.219 313.427 102.844C315.182 105.469 316.61 107.859 318.108 110.133C318.264 110.405 318.461 110.65 318.693 110.859C318.974 111.094 319.232 111.094 319.325 110.859C319.388 109.681 319.388 108.499 319.325 107.32C319.208 106.406 319.161 105.68 319.044 104.977C318.664 102.379 318.14 99.8051 317.476 97.2656C316.821 94.9219 316.048 92.2734 315.487 89.9063C315.273 89.1426 315.155 88.3553 315.136 87.5625C315.095 87.3376 315.12 87.1058 315.208 86.8946C315.295 86.6834 315.441 86.5016 315.628 86.3709C315.815 86.2402 316.036 86.1659 316.264 86.157C316.492 86.148 316.718 86.2047 316.914 86.3203C319.091 87.0938 321.97 91.8281 322.813 93.3516C323.094 93.8906 324.217 96.7031 324.498 97.5C325.388 100.164 325.954 102.926 326.183 105.727C326.516 109.054 326.117 112.414 325.013 115.57C324.497 116.737 323.775 117.8 322.883 118.711C322.208 119.366 321.36 119.813 320.439 120C319.518 120.187 318.563 120.106 317.687 119.766C315.579 117.72 313.816 115.345 312.467 112.734C310.759 109.758 307.786 103.922 307.388 103.359C307.271 103.198 307.108 103.076 306.92 103.008C306.756 103.008 306.686 103.312 306.639 103.547C306.335 105.258 306.148 113.18 306.148 113.414C306.139 115.495 305.967 117.571 305.633 119.625C305.399 120.68 305.141 121.547 304.158 121.969C303.83 122.101 303.477 122.157 303.124 122.132C302.771 122.108 302.429 122.004 302.122 121.828L302.052 121.875ZM331.496 120.844C331.191 120.581 330.901 120.299 330.63 120C330.28 119.496 329.96 118.972 329.671 118.43C329.53 118.125 329.437 117.914 329.343 117.656C328.703 115.882 328.597 113.959 329.039 112.125C329.447 110.619 329.987 109.153 330.654 107.742C330.677 107.61 330.677 107.476 330.654 107.344C330.654 106.992 330.139 104.719 330.115 103.969C330.115 102.844 330.935 102.047 332.456 101.906H332.76C333.345 101.766 333.743 100.641 334.048 99.75L335.171 96.5859C334.211 96.3516 333.275 96.0937 332.339 95.7891C331.335 95.4577 330.498 94.7529 329.998 93.8203C329.413 92.625 329.811 91.9688 331.052 91.5938C331.496 91.4297 335.077 90.75 336.201 90.5859L340.297 90.0469C341.467 89.9062 346.804 89.2734 348.512 89.3203C349.688 89.3214 350.843 89.6315 351.862 90.2196C352.88 90.8078 353.727 91.6534 354.317 92.6719C355.136 93.8438 355.698 95.25 354.457 96C352.562 97.1484 346.429 97.2422 345.306 97.2422H341.022L339.782 101.437H346.64C347.15 101.429 347.659 101.468 348.161 101.555C349.425 101.836 349.87 102.797 349.917 104.203C349.963 105.609 349.683 106.547 348.372 106.781C347.717 106.898 340.156 106.945 339.01 107.062L337.699 107.227C337.699 107.227 337.161 108.656 336.692 110.109C336.224 111.562 335.803 113.133 335.803 113.133H336.505C337.001 113.124 337.494 113.07 337.98 112.969C340.32 112.57 343.714 112.055 346.523 111.609C348.044 111.375 348.863 111.258 349.589 112.266C350.265 113.004 350.655 113.96 350.689 114.961C350.689 115.969 349.963 116.625 349.027 117.305C345.574 119.901 341.569 121.666 337.324 122.461C336.07 122.631 334.793 122.494 333.603 122.063C333.137 121.899 332.69 121.687 332.269 121.43C332.269 121.43 331.707 121.102 331.496 120.937V120.844ZM379.174 100.289C377.064 102.311 375.173 104.55 373.533 106.969C371.918 109.312 370.42 111.891 368.852 114C368.41 114.698 368.004 115.417 367.635 116.156C368.283 116.291 368.952 116.291 369.601 116.156C371.898 115.628 374.059 114.622 375.944 113.203C378.255 111.358 379.899 108.806 380.625 105.938C381.112 104.16 380.954 102.266 380.18 100.594C380.057 100.445 379.881 100.35 379.689 100.328C379.497 100.306 379.304 100.359 379.151 100.477L379.174 100.289ZM363.726 123.727C363.726 123.727 363.118 125.531 362.673 126.961C361.877 129.305 360.168 136.008 359.747 138.047C359.162 141.094 357.407 149.086 357.407 149.25C357.309 149.461 357.144 149.634 356.938 149.742C356.236 150.141 355.955 150 355.089 149.555C353.957 149.004 352.965 148.202 352.187 147.211C350.525 145.055 350.923 140.977 351.251 138.586C352.114 131.588 353.957 124.748 356.728 118.266C356.751 118.218 356.762 118.166 356.762 118.113C356.762 118.061 356.751 118.008 356.728 117.961C355.747 115.861 355.229 113.575 355.206 111.258C355.206 104.742 358.951 98.3203 363.141 93.1406C363.445 92.7422 365.482 90.2813 366.441 90.3281C367.401 90.375 367.541 91.4766 367.401 92.3906C366.554 95.4691 365.184 98.3787 363.352 100.992C362.128 103.056 361.199 105.28 360.59 107.602C360.383 108.434 360.234 109.28 360.145 110.133C360.145 110.836 360.332 111.727 360.332 111.727C360.332 111.727 362.977 108 364.733 105.727C365.669 104.484 366.371 103.641 367.073 102.75C368.618 101.039 370.233 99.375 371.754 97.7578C373.104 96.3098 374.687 95.0978 376.435 94.1719C377.125 93.6993 377.941 93.4464 378.776 93.4464C379.611 93.4464 380.427 93.6993 381.117 94.1719C382.276 95.1429 383.218 96.3487 383.88 97.7099C384.541 99.0712 384.908 100.557 384.955 102.07C385.257 105.502 384.626 108.952 383.13 112.055C381.428 115.343 378.873 118.112 375.733 120.07C372.493 122.353 368.647 123.618 364.686 123.703H363.562L363.726 123.727Z" fill="white"/>
<path fill-rule="evenodd" clip-rule="evenodd" d="M578.123 99.2109C578.123 99.2109 577.983 100.477 577.772 101.883C577.557 103.362 576.768 104.697 575.576 105.597C574.384 106.496 572.885 106.888 571.406 106.688H557.713L556.169 118.945H545.261L547.696 99.2109H578.123ZM513.781 99.2109H537.748C541.165 99.2109 545.519 100.687 544.653 106.875C544.423 109.413 543.992 111.929 543.366 114.398C541.54 118.758 536.11 118.898 535.337 118.945H511.206L512.283 110.391H533.512L533.98 106.688H519.211C515.513 106.688 512.891 104.367 513.687 99.2109H513.781ZM511.581 99.2109L510.644 106.688H492.364L491.896 110.391H510.176L509.076 118.945H479.819L482.323 99.2109H511.581ZM580.347 99.2109H591.254L588.773 118.945H577.842L580.347 99.2109ZM601.061 99.2109H611.968L609.487 118.945H598.486L600.967 99.2109H601.061ZM484.032 86.7188H513.219L512.072 95.7656H482.745L483.891 86.7188H484.032ZM571.57 86.7188C577.655 86.7188 579.293 90.2109 578.802 94.0781C578.802 94.7578 578.615 95.5547 578.591 95.7422H514.132C514.132 95.7422 514.296 94.5 514.459 93.0938C514.904 89.3906 517.97 86.8828 522.628 86.7188H571.429H571.57ZM605.742 86.7188C609.51 86.7188 613.419 88.4531 612.647 94.3828C612.506 95.4375 612.483 95.7656 612.483 95.7656H580.674L581.821 86.7188H605.742Z" fill="white"/>
<path fill-rule="evenodd" clip-rule="evenodd" d="M637.106 98.7656L638.136 90.7266H629.452L628.446 98.7656H620.254L619.271 106.758H627.416L626.433 114.844H635.093L636.146 106.664H644.315L645.321 98.6719L637.106 98.7656Z" fill="#F9B300"/>
<path d="M70.5685 120.047H79.7201V79.6875H70.5451V120.047H70.5685ZM54.4419 108.539C54.4618 109.191 54.2294 109.826 53.7933 110.31C53.3572 110.795 52.7511 111.093 52.1013 111.141H46.6712C46.0027 111.116 45.3706 110.83 44.9109 110.343C44.4513 109.857 44.2008 109.209 44.2136 108.539V92.2734H35.1087V109.336C35.1087 116.367 39.3217 120 45.5009 120H54.4653C60.1763 120 63.6404 115.617 63.6404 109.336V92.2734H54.3951C54.3951 92.2734 54.4419 108.023 54.4419 108.539V108.539ZM105.935 92.2734V108.539C105.949 109.19 105.714 109.821 105.279 110.305C104.845 110.788 104.242 111.087 103.594 111.141H98.3043C97.6567 111.087 97.0539 110.788 96.6189 110.305C96.184 109.821 95.9496 109.19 95.9638 108.539V92.2734H86.6015V109.336C86.6015 116.367 90.8145 120 97.017 120H105.958C111.669 120 115.133 115.617 115.133 109.336V92.2734H105.935ZM18.0459 92.2734H12.2646C11.2051 92.2174 10.1471 92.41 9.17507 92.8359V79.6875H0V120H9.12826V103.781C9.11413 103.131 9.34846 102.499 9.78342 102.016C10.2184 101.532 10.8212 101.233 11.4688 101.18H16.899C17.5466 101.233 18.1494 101.532 18.5844 102.016C19.0194 102.499 19.2537 103.131 19.2396 103.781V120.047H28.4146V102.469C28.4146 95.1094 23.7335 92.2734 18.0225 92.2734H18.0459Z" fill="#1CE783"/>
<defs>
<radialGradient id="paint0_radial" cx="0" cy="0" r="1" gradientUnits="userSpaceOnUse" gradientTransform="translate(409.951 73.5572) scale(199.677 199.947)">
<stop offset="0.06" stop-color="white"/>
<stop offset="0.08" stop-color="#CBFFFF"/>
<stop offset="0.1" stop-color="#96FFFF"/>
<stop offset="0.12" stop-color="#68FFFF"/>
<stop offset="0.14" stop-color="#43FFFF"/>
<stop offset="0.17" stop-color="#25FFFF"/>
<stop offset="0.19" stop-color="#11FFFF"/>
<stop offset="0.21" stop-color="#04FFFF"/>
<stop offset="0.23" stop-color="#00FFFF"/>
<stop offset="1" stop-color="#0000FF" stop-opacity="0"/>
</radialGradient>
</defs>
</svg>
